<svg width="753" height="372" viewBox="0 0 753 372" fill="none" xmlns="http://www.w3.org/2000/svg">
<path d="M256.14 3.02034L259.776 0.0410056C256.951 -0.274804 255.79 1.29828 255.311 2.53769C253.106 1.60218 250.707 2.82966 250.707 2.82966L257.978 5.52894C257.61 4.53217 256.973 3.66237 256.14 3.02034V3.02034Z" fill="#3F3D56"/>
<path d="M110.999 243.731C110.999 243.731 103.552 225.027 125.88 211L110.999 243.731Z" fill="#E6E6E6"/>
<path d="M101.841 243.391C101.841 243.391 99.5714 230.061 82 230.175L101.841 243.391Z" fill="#E6E6E6"/>
<path d="M304.988 110.803L295.283 105.536L296.007 105.143L305.717 110.41L304.988 110.803Z" fill="#CBCBCB"/>
<path d="M254.226 82.734L253.502 82.3407L263.207 77.0732L263.936 77.4665L254.226 82.734Z" fill="#CBCBCB"/>
<path d="M224.25 69.9709L223.781 70.9043L226.523 72.339L226.992 71.4056L224.25 69.9709Z" fill="#CBCBCB"/>
<path d="M281.123 100.918L275.667 98.0575L276.134 97.128L281.596 99.9822L281.123 100.918ZM270.204 95.2033L264.748 92.3431L265.215 91.4136L270.677 94.2678L270.204 95.2033ZM259.286 89.4889L253.829 86.6347L254.296 85.6992L259.753 88.5534L259.286 89.4889ZM248.367 83.7746L242.905 80.9204L243.378 79.9849L248.834 82.8391L248.367 83.7746ZM237.449 78.0602L231.986 75.206L232.459 74.2705L237.915 77.1307L237.449 78.0602Z" fill="#CBCBCB"/>
<path d="M287.048 102.831L286.58 103.765L289.322 105.199L289.791 104.266L287.048 102.831Z" fill="#CBCBCB"/>
<path d="M79.941 140.19C79.941 140.518 79.941 140.84 79.941 141.161C79.8241 143.02 79.3647 144.839 78.5872 146.524C78.5883 146.538 78.5883 146.552 78.5872 146.566C78.5521 146.643 78.5171 146.721 78.4763 146.798C78.2436 147.275 77.9865 147.738 77.706 148.187C76.4217 150.257 74.6556 151.971 72.5651 153.175C70.4746 154.378 68.1248 155.035 65.7252 155.087L65.8711 163.536L67.7502 162.523L68.0829 163.179L65.8886 164.37L66.1862 180.018V180.226L64.7332 180.554V180.346L65.165 155.087C63.2444 155.06 61.3482 154.643 59.5869 153.86C57.8257 153.077 56.2344 151.945 54.9058 150.528C54.8124 150.433 54.7249 150.332 54.6374 150.236C53.5297 149.009 52.6339 147.599 51.9879 146.065L52.0288 146.113C50.5689 142.626 50.47 138.7 51.7524 135.141C53.0348 131.582 55.6014 128.658 58.9266 126.968L59.0783 126.896C62.3678 125.276 66.1338 124.977 69.6288 126.06C73.1238 127.143 76.0924 129.528 77.9452 132.742C78.0328 132.891 78.1203 133.046 78.202 133.207C79.3385 135.352 79.9361 137.751 79.941 140.19V140.19Z" fill="#E5E5E5"/>
<path d="M77.9833 146.592C88.5127 146.592 97.0486 137.876 97.0486 127.125C97.0486 116.374 88.5127 107.658 77.9833 107.658C67.4538 107.658 58.918 116.374 58.918 127.125C58.918 137.876 67.4538 146.592 77.9833 146.592Z" fill="#E5E5E5"/>
<path opacity="0.2" d="M63.9058 114.123C62.1231 118.371 61.8788 123.128 63.2166 127.544C64.5544 131.959 67.3871 135.744 71.2079 138.222C75.0286 140.7 79.5882 141.71 84.0709 141.069C88.5537 140.429 92.6671 138.181 95.6755 134.728C94.5907 137.326 92.9654 139.653 90.9123 141.546C88.8592 143.438 86.4273 144.853 83.7854 145.69C81.1436 146.527 78.3549 146.768 75.6129 146.395C72.8709 146.022 70.2412 145.044 67.9063 143.53C65.5713 142.015 63.5869 140 62.0907 137.624C60.5946 135.249 59.6225 132.569 59.2419 129.771C58.8613 126.974 59.0813 124.125 59.8867 121.423C60.692 118.721 62.0634 116.23 63.9058 114.123V114.123Z" fill="black"/>
<path d="M79.0136 181.359L77.0703 180.805V180.59L77.6539 148.205L77.6831 146.59V146.542L77.7881 140.882L77.934 132.682L78.0332 127.123H78.0916L78.1908 133.147L78.325 140.983L78.4242 146.548V146.59V146.816L78.6109 157.661L78.6284 158.74L79.0136 181.144V181.359Z" fill="#3F3D56"/>
<path d="M81.0756 156.333L77.9258 158.026L78.3663 158.88L81.516 157.187L81.0756 156.333Z" fill="#3F3D56"/>
<path d="M325.157 64.1105C301.087 62.6594 276.944 63.0398 252.929 65.2486C241.357 66.3152 229.586 67.4712 218.235 70.0453C209.091 72.1249 198.47 75.6286 192.768 83.8039C191.574 85.4514 190.77 87.3586 190.417 89.3764C190.065 91.3942 190.174 93.4679 190.737 95.4352C192.097 100.089 195.476 103.968 199.077 107.007C207.41 113.973 217.663 118.066 226.849 123.62C243.621 133.749 258.945 147.454 268.825 164.794C273.161 172.439 277.281 182.599 272.455 191.012C267.728 199.259 257.165 202.101 248.558 203.442C237.768 205.122 226.65 204.634 215.814 203.722C203.933 202.594 192.119 200.828 180.42 198.431C157.497 193.938 134.79 188.224 111.558 185.62C99.9063 184.223 88.1565 183.876 76.4449 184.583C65.8647 185.316 55.197 187.02 45.2646 190.917C37.5906 193.926 29.4206 198.461 25.3006 206.034C21.3148 213.333 22.8671 221.753 27.2089 228.486C32.461 236.584 40.5785 242.138 49.0461 246.195C58.6867 250.819 68.9985 253.811 79.3277 256.361C84.5798 257.648 89.832 258.816 95.0841 259.978C96.1813 260.222 96.6481 258.5 95.551 258.256C84.93 255.914 74.2798 253.56 63.9272 250.17C54.345 247.036 44.5351 243.019 36.6861 236.423C30.3426 231.09 24.3027 223.314 24.682 214.448C25.0613 205.581 32.391 199.289 39.5806 195.457C48.5618 190.661 58.7685 188.307 68.7592 187.115C80.2113 185.816 91.7601 185.656 103.242 186.639C126.428 188.426 149.094 193.831 171.824 198.556C193.906 203.12 216.677 207.357 239.308 206.183C248.278 205.718 257.889 204.395 265.808 199.783C269.432 197.668 272.706 194.683 274.562 190.798C276.237 187.088 276.764 182.945 276.073 178.922C274.789 170.121 269.654 161.964 264.565 154.95C258.965 147.349 252.47 140.48 245.226 134.5C237.283 127.974 228.72 122.277 219.665 117.494C214.856 114.908 209.978 112.423 205.397 109.432C200.991 106.56 196.643 103.11 193.988 98.4801C191.654 94.4461 191.245 89.846 193.661 85.7583C196.077 81.6707 200.314 78.745 204.469 76.6356C214.477 71.5588 226.108 70.2003 237.056 68.8059C260.551 65.8187 284.231 64.6038 307.901 65.1712C313.655 65.3102 319.407 65.5525 325.157 65.8981C326.284 65.9696 326.278 64.182 325.157 64.1105Z" fill="black"/>
<path d="M292.247 16.2108L295.877 13.2314C293.059 12.9156 291.897 14.4887 291.419 15.7341C289.213 14.7986 286.814 16.0201 286.814 16.0201L294.086 18.7194C293.717 17.7226 293.08 16.8528 292.247 16.2108V16.2108Z" fill="#3F3D56"/>
<path d="M267.595 3.02179L271.231 0.0424534C268.406 -0.279315 267.245 1.29378 266.766 2.53914C264.561 1.60363 262.162 2.83111 262.162 2.83111L269.433 5.52443C269.065 4.52936 268.428 3.66151 267.595 3.02179V3.02179Z" fill="#3F3D56"/>
<path d="M255.391 35.4919C261.441 35.4919 266.345 30.4844 266.345 24.3075C266.345 18.1305 261.441 13.123 255.391 13.123C249.342 13.123 244.438 18.1305 244.438 24.3075C244.438 30.4844 249.342 35.4919 255.391 35.4919Z" fill="#F49A9A"/>
<path d="M289.735 58.7737H236.005C235.939 58.7799 235.873 58.7799 235.807 58.7737L261.215 13.8096C261.449 13.391 261.836 13.084 262.291 12.9556C262.746 12.8272 263.232 12.8879 263.643 13.1244C263.924 13.2854 264.157 13.5225 264.314 13.8096L281.366 43.9724L282.183 45.4144L289.735 58.7737Z" fill="#F45353"/>
<path d="M319.648 58.7749H273.178L282.182 45.4156L282.83 44.4562L294.566 27.051C294.76 26.8017 295 26.5939 295.273 26.4396C295.546 26.2852 295.846 26.1872 296.156 26.1513C296.466 26.1153 296.78 26.142 297.08 26.2299C297.38 26.3179 297.66 26.4652 297.904 26.6637C297.97 26.7164 298.032 26.7742 298.09 26.8365C298.153 26.9026 298.21 26.9744 298.26 27.051L319.648 58.7749Z" fill="#F45353"/>
<path d="M243.006 161.845C248.101 164.443 251.176 167.881 251.176 171.641C251.176 179.756 236.803 186.329 219.08 186.329C211.371 186.329 204.298 185.084 198.766 183.016C204.642 185.995 213.174 187.902 222.692 187.902C240.427 187.902 254.789 181.347 254.789 173.22C254.783 168.632 250.184 164.538 243.006 161.845Z" fill="#F1F1F1"/>
<path d="M254.323 167.417C260.065 170.349 263.567 174.228 263.567 178.476C263.567 187.623 247.349 195.047 227.339 195.047C218.644 195.047 210.66 193.641 204.416 191.305C211.051 194.69 220.68 196.823 231.395 196.823C251.405 196.823 267.623 189.399 267.623 180.252C267.623 175.074 262.441 170.456 254.323 167.417Z" fill="#F1F1F1"/>
<path d="M238.657 164.302C242.24 166.131 244.428 168.55 244.428 171.202C244.428 176.916 234.298 181.552 221.809 181.552C216.942 181.617 212.1 180.826 207.494 179.216C211.638 181.332 217.648 182.66 224.342 182.66C236.836 182.66 246.961 178.031 246.961 172.316C246.961 169.081 243.722 166.203 238.657 164.302Z" fill="#F1F1F1"/>
<path d="M165 137.191C165 137.191 165.794 148.96 188.395 148.96C210.997 148.96 217.743 137.191 217.743 137.191H165Z" fill="#272525"/>
<path d="M197.085 106.321C193.821 103.788 189.724 102.644 185.652 103.127C189.292 104.02 192.506 106.194 194.731 109.267C196.957 112.34 198.05 116.116 197.821 119.93C197.591 123.745 196.052 127.354 193.474 130.126C190.897 132.897 187.446 134.652 183.727 135.083C187.282 135.958 191.024 135.557 194.324 133.947C197.624 132.337 200.28 129.616 201.847 126.242C203.414 122.868 203.796 119.046 202.929 115.418C202.062 111.79 199.998 108.578 197.085 106.321V106.321Z" fill="#272525"/>
<path d="M189.683 101H188.143V138.456H189.683V101Z" fill="#3F3D56"/>
<path d="M271.893 71.1611V70.2435L276.725 63.0931L271.899 69.5642V69.7608L271.735 62.4436L275.861 54.9833L271.677 61.1148L271.724 45.9619L271.449 57.8792L267.65 53.0289L271.438 58.9101L271.35 65.4646L267.849 59.0829L271.35 66.4299L271.304 70.0647L271.175 80.1468V80.9035C271.496 80.9035 271.817 80.9035 272.132 80.9035L271.91 71.2207L271.893 71.1611Z" fill="#CBCBCB"/>
<path d="M291.077 102.378V101.461L295.909 94.3105L291.082 100.782V100.978L290.861 93.6431L295.033 86.2245L290.861 92.356L290.901 77.2031L290.627 89.1205L286.828 84.2701L290.616 90.1513L290.528 96.7058L287.027 90.3182L290.528 97.6711L290.481 101.306L290.353 111.388V112.139C290.674 112.139 290.995 112.139 291.31 112.139L291.088 102.456L291.077 102.378Z" fill="#CBCBCB"/>
<path d="M260.084 64.3433V63.4257L264.911 56.2753L260.061 62.7285V62.9252L259.898 55.6079L264.064 48.1894L259.88 54.3209L259.927 39.168L259.647 51.0853L255.848 46.2588L259.635 52.14L259.553 58.6945L256.052 52.3068L259.553 59.6539L259.507 63.2946L259.349 73.3647V74.1155C259.676 74.1155 259.991 74.1155 260.306 74.1155L260.09 64.4327L260.084 64.3433Z" fill="#CBCBCB"/>
<path d="M116.114 272.592C119.517 272.592 122.276 269.774 122.276 266.299C122.276 262.824 119.517 260.007 116.114 260.007C112.71 260.007 109.951 262.824 109.951 266.299C109.951 269.774 112.71 272.592 116.114 272.592Z" fill="#F45353"/>
<path d="M607.632 244.597H603.087L600.926 227.111H607.632V244.597Z" fill="#FFB7B7"/>
<path d="M610.255 250.045H595.596V249.863C595.595 249.112 595.742 248.369 596.03 247.676C596.317 246.983 596.74 246.353 597.272 245.823C597.805 245.293 598.437 244.873 599.133 244.587C599.828 244.301 600.574 244.155 601.326 244.157H610.277L610.255 250.045Z" fill="#272525"/>
<path d="M687.545 249.467C687.545 249.467 680.202 231.447 702.231 217.934L687.545 249.467Z" fill="#E6E6E6"/>
<path d="M678.515 249.141C678.515 249.141 676.276 236.296 658.94 236.405Z" fill="#E6E6E6"/>
<path d="M651.406 241.242L647.144 242.819L639.008 227.181L645.296 224.852L651.406 241.242Z" fill="#FFB7B7"/>
<path d="M654.025 244.957L640.285 250.045L640.219 249.875C639.694 248.458 639.755 246.892 640.388 245.519C641.022 244.147 642.176 243.082 643.597 242.558L651.99 239.451L654.025 244.957Z" fill="#272525"/>
<path d="M630.28 124.389L628.798 121.435L616.191 127.705L616.562 130.312L614.152 133.454C614.152 133.454 610.073 135.674 610.814 143.065L611.554 150.091L612.483 159.151L605.994 181.521L602.656 211.099L600.246 234.95L611.925 234.394L622.68 195.564L641.593 237.348L654.57 234.02L636.769 192.61L634.546 175.229C634.546 175.229 636.028 165.986 628.986 159.703L630.088 156.383V152.281L633.797 132.728L630.28 124.389Z" fill="#272525"/>
<path opacity="0.2" d="M630.623 166.661L622.466 195.501L622.885 195.619L631.042 166.779L630.623 166.661Z" fill="black"/>
<path d="M629.912 159.146H611.74V160.993H629.912V159.146Z" fill="#3F3D56"/>
<path d="M611.741 162.101C612.15 162.101 612.482 161.274 612.482 160.254C612.482 159.234 612.15 158.407 611.741 158.407C611.332 158.407 611 159.234 611 160.254C611 161.274 611.332 162.101 611.741 162.101Z" fill="#3F3D56"/>
<path d="M619.934 120.817C625.393 120.817 629.818 116.405 629.818 110.962C629.818 105.52 625.393 101.107 619.934 101.107C614.476 101.107 610.051 105.52 610.051 110.962C610.051 116.405 614.476 120.817 619.934 120.817Z" fill="#FFB7B7"/>
<path d="M635.059 107.442C639.89 107.442 643.806 103.537 643.806 98.7209C643.806 93.9045 639.89 90 635.059 90C630.229 90 626.313 93.9045 626.313 98.7209C626.313 103.537 630.229 107.442 635.059 107.442Z" fill="#272525"/>
<path d="M646.154 97.7871C646.482 98.8844 646.589 100.035 646.471 101.174C646.352 102.313 646.01 103.417 645.464 104.424C644.917 105.431 644.177 106.321 643.286 107.043C642.394 107.764 641.369 108.304 640.269 108.631C639.168 108.957 638.014 109.065 636.872 108.947C635.73 108.829 634.622 108.487 633.613 107.942C632.603 107.397 631.71 106.66 630.987 105.771C630.263 104.882 629.722 103.86 629.394 102.762C629.256 102.305 629.157 101.837 629.098 101.363C629.729 103.456 631.124 105.236 633.009 106.352C634.893 107.467 637.129 107.837 639.273 107.387C641.418 106.937 643.315 105.701 644.589 103.924C645.863 102.146 646.422 99.9559 646.154 97.7871V97.7871Z" fill="#2F2E41"/>
<path d="M611.608 108.224C611.351 110.479 611.847 112.755 613.019 114.7C614.191 116.644 615.973 118.15 618.09 118.982C620.207 119.814 622.54 119.927 624.727 119.303C626.915 118.679 628.835 117.353 630.19 115.53C631.545 113.708 632.26 111.49 632.223 109.222C632.186 106.953 631.399 104.76 629.986 102.982C628.572 101.205 626.609 99.9415 624.403 99.3888C622.196 98.8361 619.868 99.0245 617.779 99.925C616.036 98.5345 613.909 98.9647 612.171 100.433C610.201 102.089 609.617 103.227 608.092 105.952C609.604 106.16 610.109 108.012 611.608 108.224Z" fill="#272525"/>
<path d="M647.953 137.864C647.844 140.784 647.626 146.533 647.626 146.828C647.626 147.124 643.269 156.162 641.364 160.046C641.234 160.32 641.112 160.568 641.003 160.785C640.858 161.087 640.629 161.342 640.343 161.518C640.057 161.693 639.726 161.783 639.39 161.776L631.137 161.628C630.68 161.628 630.241 161.449 629.915 161.13C629.589 160.81 629.401 160.376 629.393 159.92L628.474 123.716C628.467 123.598 628.485 123.479 628.526 123.368C628.567 123.257 628.63 123.156 628.712 123.07C628.793 122.984 628.892 122.916 629.001 122.869C629.11 122.823 629.227 122.799 629.346 122.799H640.013C640.463 122.799 640.903 122.925 641.284 123.164C641.665 123.402 641.97 123.742 642.166 124.146L647.273 134.683C647.752 135.673 647.98 136.765 647.936 137.864H647.953Z" fill="#F45353"/>
<path d="M629.255 157.434C627.138 156.153 625.235 154.549 623.616 152.68C619.849 148.466 617.555 143.146 617.08 137.52C616.644 132.709 617.62 129.133 619.925 126.891C622.858 124.041 626.854 124.458 627.02 124.475L627.198 124.497L629.905 126.778L629.159 127.704L626.736 125.661C625.996 125.622 622.971 125.614 620.762 127.769C618.727 129.755 617.895 133.009 618.278 137.441C618.726 142.796 620.898 147.862 624.47 151.885C626.015 153.648 627.821 155.165 629.826 156.382L629.255 157.434Z" fill="#F45353"/>
<path d="M644.614 143.658L630.194 146.612L630.274 147L644.694 144.046L644.614 143.658Z" fill="#3F3D56"/>
<path d="M635.118 122.78L634.722 122.796L635.659 145.672L636.055 145.656L635.118 122.78Z" fill="#3F3D56"/>
<path d="M647.953 137.862C647.844 140.782 647.626 146.531 647.626 146.827C647.626 147.122 643.269 156.16 641.364 160.045L644.885 139.666C645.02 138.88 645.362 138.144 645.876 137.533C646.39 136.923 647.057 136.459 647.809 136.189C647.932 136.738 647.98 137.301 647.953 137.862Z" fill="#3F3D56"/>
<path d="M626.318 180.572C626.882 179.845 627.133 178.924 627.018 178.012C626.903 177.1 626.43 176.271 625.703 175.705C625.541 175.58 625.367 175.469 625.185 175.375L625.904 167.484L621.198 165.881L620.326 177.039C619.954 177.822 619.889 178.715 620.142 179.543C620.396 180.371 620.95 181.075 621.697 181.517C622.444 181.959 623.33 182.107 624.18 181.932C625.031 181.758 625.785 181.273 626.296 180.572H626.318Z" fill="#FFB7B7"/>
<path d="M626.932 172.938L618.6 172.634L618.948 132.562C618.944 131.428 619.296 130.321 619.956 129.397C620.616 128.474 621.55 127.78 622.626 127.413C623.632 127.078 624.719 127.078 625.725 127.413C626.867 127.797 627.848 128.55 628.512 129.553C629.177 130.556 629.487 131.751 629.394 132.949L626.932 172.938Z" fill="#CBCBCB"/>
<path d="M700.039 250.184H534.008C533.892 250.184 533.782 250.138 533.7 250.056C533.618 249.975 533.572 249.864 533.572 249.749C533.572 249.634 533.618 249.523 533.7 249.442C533.782 249.36 533.892 249.314 534.008 249.314H700.039C700.155 249.314 700.265 249.36 700.347 249.442C700.429 249.523 700.475 249.634 700.475 249.749C700.475 249.864 700.429 249.975 700.347 250.056C700.265 250.138 700.155 250.184 700.039 250.184Z" fill="#CBCBCB"/>
</svg>
