<svg width="243" height="59" viewBox="0 0 243 59" fill="none" xmlns="http://www.w3.org/2000/svg">
<path d="M7.21 1.745C7.84 1.745 8.48167 1.78 9.135 1.85V1.885L9.17 1.85V21.94C10.1033 22.3133 10.745 22.6983 11.095 23.095L10.745 26H1.645L1.295 23.095C1.715 22.5817 2.66 22.1383 4.13 21.765V6.435C2.82333 6.295 1.77333 6.05 0.98 5.7V3.04C2.94 2.17667 5.01667 1.745 7.21 1.745ZM22.1338 26.28C19.0538 26.28 16.8838 25.3583 15.6238 23.515C14.3871 21.6717 13.7688 18.545 13.7688 14.135C13.7688 9.725 14.4688 6.52833 15.8688 4.545C17.2921 2.56167 19.5555 1.57 22.6588 1.57C25.7855 1.57 27.9671 2.445 29.2038 4.195C30.4638 5.945 31.0938 9.025 31.0938 13.435C31.0938 17.845 30.3705 21.0883 28.9238 23.165C27.5005 25.2417 25.2371 26.28 22.1338 26.28ZM19.6488 6.715C19.2288 7.975 19.0188 10.2967 19.0188 13.68C19.0188 17.0633 19.2521 19.4667 19.7188 20.89C20.1855 22.3133 21.0838 23.025 22.4138 23.025C23.5338 23.025 24.3621 22.57 24.8988 21.66C25.5288 20.61 25.8438 18.2183 25.8438 14.485C25.8438 10.7517 25.6105 8.20833 25.1438 6.855C24.6771 5.50167 23.7438 4.825 22.3438 4.825C20.9671 4.825 20.0688 5.455 19.6488 6.715ZM42.4998 26.28C39.4198 26.28 37.2498 25.3583 35.9898 23.515C34.7531 21.6717 34.1348 18.545 34.1348 14.135C34.1348 9.725 34.8348 6.52833 36.2348 4.545C37.6581 2.56167 39.9215 1.57 43.0248 1.57C46.1515 1.57 48.3331 2.445 49.5698 4.195C50.8298 5.945 51.4598 9.025 51.4598 13.435C51.4598 17.845 50.7365 21.0883 49.2898 23.165C47.8665 25.2417 45.6031 26.28 42.4998 26.28ZM40.0148 6.715C39.5948 7.975 39.3848 10.2967 39.3848 13.68C39.3848 17.0633 39.6181 19.4667 40.0848 20.89C40.5515 22.3133 41.4498 23.025 42.7798 23.025C43.8998 23.025 44.7281 22.57 45.2648 21.66C45.8948 20.61 46.2098 18.2183 46.2098 14.485C46.2098 10.7517 45.9765 8.20833 45.5098 6.855C45.0431 5.50167 44.1098 4.825 42.7098 4.825C41.3331 4.825 40.4348 5.455 40.0148 6.715ZM60.6608 26.175C60.5442 25.8017 60.4858 25.335 60.4858 24.775C60.4858 24.1917 60.7075 23.5033 61.1508 22.71L72.7708 0.799999L74.9758 1.57C75.0925 1.94333 75.1508 2.41 75.1508 2.97C75.1508 3.53 74.9292 4.23 74.4858 5.07L62.8658 26.945L60.6608 26.175ZM53.9408 8.255C53.9408 5.99167 54.5242 4.28833 55.6908 3.145C56.8575 2.00167 58.3975 1.43 60.3108 1.43C62.2475 1.43 63.7525 1.94333 64.8258 2.97C65.8992 3.97333 66.4358 5.63 66.4358 7.94C66.4358 10.25 65.8408 12 64.6508 13.19C63.4842 14.38 61.9442 14.975 60.0308 14.975C55.9708 14.975 53.9408 12.735 53.9408 8.255ZM60.1358 4.405C59.3892 4.405 58.8758 4.63833 58.5958 5.105C58.3392 5.57167 58.2108 6.575 58.2108 8.115C58.2108 9.63167 58.3625 10.67 58.6658 11.23C58.9692 11.7667 59.4825 12.035 60.2058 12.035C60.9525 12.035 61.4658 11.7783 61.7458 11.265C62.0258 10.7517 62.1658 9.73667 62.1658 8.22C62.1658 6.68 62.0142 5.665 61.7108 5.175C61.4075 4.66167 60.8825 4.405 60.1358 4.405ZM69.3058 19.56C69.3058 17.2967 69.8892 15.5933 71.0558 14.45C72.2225 13.3067 73.7625 12.735 75.6758 12.735C77.6125 12.735 79.1175 13.2483 80.1908 14.275C81.2642 15.2783 81.8008 16.935 81.8008 19.245C81.8008 21.555 81.2058 23.305 80.0158 24.495C78.8492 25.685 77.3092 26.28 75.3958 26.28C71.3358 26.28 69.3058 24.04 69.3058 19.56ZM75.5008 15.71C74.7542 15.71 74.2408 15.9433 73.9608 16.41C73.7042 16.8767 73.5758 17.88 73.5758 19.42C73.5758 20.9367 73.7275 21.975 74.0308 22.535C74.3342 23.0717 74.8475 23.34 75.5708 23.34C76.3175 23.34 76.8308 23.0833 77.1108 22.57C77.3908 22.0567 77.5308 21.0417 77.5308 19.525C77.5308 17.985 77.3792 16.97 77.0758 16.48C76.7725 15.9667 76.2475 15.71 75.5008 15.71ZM100.587 17.6H99.0118V21.73C100.715 22.1033 101.777 22.5583 102.197 23.095L101.847 26H92.3968L92.0468 23.095C92.3501 22.6983 92.9918 22.3133 93.9718 21.94V5.945C93.0151 5.595 92.3734 5.19833 92.0468 4.755L92.3968 1.85H101.672C104.915 1.89667 107.33 2.49167 108.917 3.635C110.527 4.755 111.332 6.76167 111.332 9.655C111.332 14.9517 107.75 17.6 100.587 17.6ZM101.112 5.665H99.0118V13.785H101.357C102.943 13.785 104.122 13.47 104.892 12.84C105.685 12.21 106.082 11.125 106.082 9.585C106.082 8.02167 105.65 6.98333 104.787 6.47C103.947 5.93333 102.722 5.665 101.112 5.665ZM132.057 17.25C132.057 20.3067 131.357 22.5817 129.957 24.075C128.581 25.545 126.341 26.28 123.237 26.28C120.134 26.28 117.952 25.5567 116.692 24.11C115.456 22.64 114.837 20.3533 114.837 17.25V5.945C113.951 5.61833 113.309 5.22167 112.912 4.755L113.262 1.85H121.452L121.802 4.755C121.429 5.19833 120.787 5.595 119.877 5.945V17.39C119.877 19.07 120.146 20.3183 120.682 21.135C121.242 21.9283 122.234 22.325 123.657 22.325C125.081 22.325 126.084 21.9167 126.667 21.1C127.251 20.26 127.542 19.0233 127.542 17.39V5.945C126.586 5.595 125.944 5.19833 125.617 4.755L125.967 1.85H133.632L133.982 4.755C133.609 5.19833 132.967 5.595 132.057 5.945V17.25ZM154.79 8.92C154.79 10.5067 154.288 11.8367 153.285 12.91C152.305 13.9833 151.068 14.8 149.575 15.36C150.742 15.85 151.512 16.445 151.885 17.145L154.44 22.01C155.537 22.3833 156.283 22.815 156.68 23.305L156.33 26H150.415L146.39 17.425C146.017 16.5617 145.585 16.13 145.095 16.13H142.82V21.73C144.523 22.1033 145.585 22.5583 146.005 23.095L145.655 26H136.205L135.855 23.095C136.158 22.6983 136.8 22.3133 137.78 21.94V5.945C136.823 5.595 136.182 5.19833 135.855 4.755L136.205 1.85H145.13C148.397 1.89667 150.823 2.42167 152.41 3.425C153.997 4.42833 154.79 6.26 154.79 8.92ZM144.885 5.665H142.82V12.315H144.815C146.402 12.315 147.58 12.0817 148.35 11.615C149.143 11.125 149.54 10.2617 149.54 9.025C149.54 7.78833 149.143 6.925 148.35 6.435C147.557 5.92167 146.402 5.665 144.885 5.665ZM174.623 26H158.383L158.033 23.095C158.336 22.6983 158.978 22.3133 159.958 21.94V5.945C159.001 5.595 158.359 5.19833 158.033 4.755L158.383 1.85H174.343V7.94L171.753 8.255C171.216 7.78833 170.784 6.925 170.458 5.665H164.998V11.685H169.863C170.143 10.985 170.434 10.495 170.738 10.215L172.943 10.46V16.69L170.738 16.97C170.434 16.7367 170.143 16.2467 169.863 15.5H164.998V22.185H170.738C171.041 20.9717 171.473 20.1083 172.033 19.595L174.623 19.91V26ZM6.755 44.805V54.01C7.61833 54.3367 8.26 54.7683 8.68 55.305L8.33 58H1.47L1.12 55.305C1.54 54.7683 2.18167 54.3367 3.045 54.01V37.84C2.08833 37.49 1.42333 37.0583 1.05 36.545L1.4 33.85H8.61L15.575 47.43C16.0883 48.41 16.59 49.7167 17.08 51.35L17.325 52.19L17.71 52.05C17.3833 50.02 17.22 48.3167 17.22 46.94V37.875C16.38 37.5483 15.7383 37.105 15.295 36.545L15.645 33.85H22.505L22.855 36.545C22.4117 37.105 21.77 37.5483 20.93 37.875V58H15.435L8.4 44.315C7.88667 43.335 7.385 42.0167 6.895 40.36L6.65 39.555L6.265 39.695C6.59167 41.725 6.755 43.4283 6.755 44.805ZM41.5623 58H25.3223L24.9723 55.095C25.2757 54.6983 25.9173 54.3133 26.8973 53.94V37.945C25.9407 37.595 25.299 37.1983 24.9723 36.755L25.3223 33.85H41.2823V39.94L38.6923 40.255C38.1557 39.7883 37.724 38.925 37.3973 37.665H31.9373V43.685H36.8023C37.0823 42.985 37.374 42.495 37.6773 42.215L39.8823 42.46V48.69L37.6773 48.97C37.374 48.7367 37.0823 48.2467 36.8023 47.5H31.9373V54.185H37.6773C37.9807 52.9717 38.4123 52.1083 38.9723 51.595L41.5623 51.91V58ZM58.8795 44.91L55.9395 58.175H50.5495L44.9495 37.945C43.9929 37.595 43.3512 37.1983 43.0245 36.755L43.3745 33.85H51.4595L51.8095 36.755C51.4129 37.2217 50.7829 37.6067 49.9195 37.91L52.4045 48.235C52.7779 49.7283 53.0695 51.21 53.2795 52.68L53.3495 53.275H53.8395C53.8629 51.8983 54.0845 50.2417 54.5045 48.305L57.6545 34.095H63.0095L66.1595 48.235C66.5329 49.9383 66.7895 51.42 66.9295 52.68L66.9995 53.31H67.4895C67.5362 51.8867 67.8162 50.2183 68.3295 48.305L71.0945 38.05C70.1145 37.7 69.4379 37.2683 69.0645 36.755L69.4145 33.85H77.1495L77.4995 36.755C77.0562 37.315 76.2745 37.77 75.1545 38.12L69.2745 58.175H63.7795L60.9445 44.945C60.6179 43.3583 60.3729 41.8067 60.2095 40.29L60.1395 39.59H59.6495C59.5562 41.2 59.2995 42.9733 58.8795 44.91ZM94.8439 37.35H91.5889C91.4256 38.6333 91.1339 39.6367 90.7139 40.36L87.3889 40.15C86.8756 39.2633 86.6189 37.8867 86.6189 36.02C86.6189 35.2267 86.7006 34.5033 86.8639 33.85H103.909L104.259 36.615L94.1089 51.84C93.4789 52.82 92.8256 53.59 92.1489 54.15L91.7639 54.43L91.9389 54.815C93.0122 54.605 94.1556 54.5 95.3689 54.5H99.6389C99.8022 53.2167 100.094 52.2133 100.514 51.49L103.839 51.7C104.352 52.5867 104.609 53.9633 104.609 55.83C104.609 56.6233 104.527 57.3467 104.364 58H86.3039L85.9539 55.235L96.1039 40.01C96.7339 39.03 97.3989 38.26 98.0989 37.7L98.4489 37.42L98.2739 37.035C97.2006 37.245 96.0572 37.35 94.8439 37.35ZM123.3 58H107.06L106.71 55.095C107.013 54.6983 107.655 54.3133 108.635 53.94V37.945C107.678 37.595 107.037 37.1983 106.71 36.755L107.06 33.85H123.02V39.94L120.43 40.255C119.893 39.7883 119.462 38.925 119.135 37.665H113.675V43.685H118.54C118.82 42.985 119.112 42.495 119.415 42.215L121.62 42.46V48.69L119.415 48.97C119.112 48.7367 118.82 48.2467 118.54 47.5H113.675V54.185H119.415C119.718 52.9717 120.15 52.1083 120.71 51.595L123.3 51.91V58ZM138.307 33.675L145.272 53.87C146.252 54.22 146.94 54.6283 147.337 55.095L146.987 58H138.797L138.447 55.095C138.727 54.7217 139.287 54.3717 140.127 54.045L139.182 51.105H132.182L131.307 53.94C132.124 54.2667 132.73 54.6517 133.127 55.095L132.777 58H124.797L124.447 55.095C124.867 54.5583 125.649 54.115 126.792 53.765L133.512 33.675H138.307ZM135.402 38.575C135.402 39.9983 135.11 41.655 134.527 43.545L133.162 47.885H138.167L136.837 43.615C136.3 41.9817 135.997 40.5 135.927 39.17L135.892 38.575H135.402ZM164.916 58H148.886L148.536 55.095C148.839 54.6983 149.481 54.3133 150.461 53.94V37.945C149.504 37.595 148.862 37.1983 148.536 36.755L148.886 33.85H157.076L157.426 36.755C157.052 37.1983 156.411 37.595 155.501 37.945V54.185H161.031C161.334 52.9717 161.766 52.1083 162.326 51.595L164.916 51.91V58ZM179.21 33.675L186.175 53.87C187.155 54.22 187.843 54.6283 188.24 55.095L187.89 58H179.7L179.35 55.095C179.63 54.7217 180.19 54.3717 181.03 54.045L180.085 51.105H173.085L172.21 53.94C173.027 54.2667 173.633 54.6517 174.03 55.095L173.68 58H165.7L165.35 55.095C165.77 54.5583 166.552 54.115 167.695 53.765L174.415 33.675H179.21ZM176.305 38.575C176.305 39.9983 176.013 41.655 175.43 43.545L174.065 47.885H179.07L177.74 43.615C177.203 41.9817 176.9 40.5 176.83 39.17L176.795 38.575H176.305ZM195.074 44.805V54.01C195.937 54.3367 196.579 54.7683 196.999 55.305L196.649 58H189.789L189.439 55.305C189.859 54.7683 190.5 54.3367 191.364 54.01V37.84C190.407 37.49 189.742 37.0583 189.369 36.545L189.719 33.85H196.929L203.894 47.43C204.407 48.41 204.909 49.7167 205.399 51.35L205.644 52.19L206.029 52.05C205.702 50.02 205.539 48.3167 205.539 46.94V37.875C204.699 37.5483 204.057 37.105 203.614 36.545L203.964 33.85H210.824L211.174 36.545C210.73 37.105 210.089 37.5483 209.249 37.875V58H203.754L196.719 44.315C196.205 43.335 195.704 42.0167 195.214 40.36L194.969 39.555L194.584 39.695C194.91 41.725 195.074 43.4283 195.074 44.805ZM222.566 58H213.641L213.291 55.095C213.594 54.6983 214.236 54.3133 215.216 53.94V37.945C214.259 37.595 213.618 37.1983 213.291 36.755L213.641 33.85H221.446C225.203 33.85 228.178 34.9 230.371 37C232.588 39.1 233.696 42.1917 233.696 46.275C233.696 50.335 232.693 53.31 230.686 55.2C228.703 57.0667 225.996 58 222.566 58ZM220.256 54.185H222.776C224.526 54.185 225.903 53.66 226.906 52.61C227.933 51.5367 228.446 49.4717 228.446 46.415C228.446 40.5817 226.241 37.665 221.831 37.665H220.256V54.185ZM239.061 58.35C237.124 58.35 236.156 57.475 236.156 55.725C236.156 53.9517 237.124 53.065 239.061 53.065C241.021 53.065 242.001 53.9517 242.001 55.725C242.001 57.475 241.021 58.35 239.061 58.35Z" fill="white"/>
</svg>
