<svg xmlns="http://www.w3.org/2000/svg" viewBox="0 0 775.55 597.87">
  <defs>
    <style>
      .cls-1 {
        fill: #e6e6e6;
      }

      .cls-2 {
        fill: #cbcbcb;
      }

      .cls-3 {
        fill: #e5e5e5;
      }

      .cls-4 {
        opacity: 0.2;
        isolation: isolate;
      }

      .cls-5 {
        fill: #3f3d56;
      }

      .cls-6 {
        fill: #f49a9a;
      }

      .cls-7 {
        fill: #f45353;
      }

      .cls-8 {
        fill: #f1f1f1;
      }

      .cls-9 {
        fill: #272525;
      }

      .cls-10 {
        fill: #ffb7b7;
      }

      .cls-11 {
        fill: #2f2e41;
      }
    </style>
  </defs>
  <title>FTS SHIRT NO BACKGROUNDAsset 1graphic</title>
  <g id="Layer_2" data-name="Layer 2">
    <g id="ac9d9db3-c976-41a1-a1c2-ce888a7912c8">
      <path id="efdf5e1f-6b90-40c1-9274-afa2b16f39be" class="cls-1" d="M469.9,596.22s-12.76-31.39,25.5-54.93Z"/>
      <path id="af7fe47f-56e6-4bb6-aa0f-d6efaf86a160" class="cls-1" d="M454.21,595.65s-3.89-22.37-34-22.18Z"/>
      <path id="a08d42bc-6ae2-46d7-9736-aba59e52cc48" class="cls-1" d="M741.85,596.22s-16.85-41.47,33.7-72.57Z"/>
      <path id="bafd7749-4c33-42a1-9524-e744b9f16454" class="cls-1" d="M721.13,595.47s-5.14-29.56-44.92-29.31"/>
      <polygon class="cls-2" points="483.21 226.68 466.58 217.84 467.82 217.18 484.46 226.02 483.21 226.68"/>
      <polygon class="cls-2" points="396.22 179.57 394.98 178.91 411.61 170.07 412.86 170.73 396.22 179.57"/>
      <rect class="cls-2" x="345.93" y="157.52" width="1.76" height="5.28" transform="translate(46.12 395.76) rotate(-62.87)"/>
      <path class="cls-2" d="M442.31,210.09l-9.35-4.8.8-1.56,9.36,4.79ZM423.6,200.5l-9.35-4.8.8-1.56,9.36,4.79Zm-18.71-9.59-9.35-4.79.8-1.57,9.35,4.79Zm-18.71-9.59-9.36-4.79.81-1.57,9.35,4.79Zm-18.71-9.59-9.36-4.79.81-1.57,9.35,4.8Z"/>
      <rect class="cls-2" x="453.54" y="212.66" width="1.76" height="5.28" transform="translate(55.58 521.53) rotate(-62.87)"/>
      <path class="cls-3" d="M97.57,276c0,.55,0,1.09,0,1.63a24.85,24.85,0,0,1-2.32,9,.43.43,0,0,1,0,.07c-.06.13-.12.26-.19.39a25.38,25.38,0,0,1-1.32,2.33A24.92,24.92,0,0,1,73.21,301l.25,14.18,3.22-1.7.57,1.1-3.76,2L74,342.84v.35l-2.49.55v-.35L72.25,301a24.82,24.82,0,0,1-17.58-7.65c-.16-.16-.31-.33-.46-.49l0,0a24.78,24.78,0,0,1-4.54-7l.07.08a24.94,24.94,0,0,1,11.82-32.13l.26-.12a24.94,24.94,0,0,1,32.33,9.81c.15.25.3.51.44.78A24.74,24.74,0,0,1,97.57,276Z"/>
      <circle class="cls-3" cx="94.22" cy="254.07" r="32.67"/>
      <path class="cls-4" d="M70.09,232.25a32.67,32.67,0,0,0,54.44,34.58,32.68,32.68,0,1,1-54.44-34.58Z"/>
      <polygon class="cls-5" points="95.98 345.09 92.65 344.16 92.65 343.8 93.65 289.45 93.7 286.74 93.7 286.66 93.88 277.16 94.13 263.4 94.13 263.4 94.3 254.07 94.4 254.07 94.57 264.18 94.8 277.33 94.97 286.67 94.97 286.74 94.97 287.12 94.97 287.12 95.29 305.32 95.32 307.13 95.98 344.73 95.98 345.09"/>
      <rect class="cls-5" x="94.13" y="304.43" width="6.1" height="1.62" transform="translate(-131.01 80.42) rotate(-27.77)"/>
      <path d="M517.77,148.32A832.62,832.62,0,0,0,394,150.23c-19.83,1.79-40,3.73-59.45,8.05-15.67,3.49-33.87,9.37-43.64,23.09a22.3,22.3,0,0,0-3.48,19.52c2.33,7.81,8.12,14.32,14.29,19.42C316,232,333.57,238.87,349.31,248.19c28.74,17,55,40,71.93,69.1,7.43,12.83,14.49,29.88,6.22,44-8.1,13.84-26.2,18.61-40.95,20.86-18.49,2.82-37.54,2-56.11.47a582.27,582.27,0,0,1-60.65-8.88c-39.28-7.54-78.19-17.13-118-21.5a342.71,342.71,0,0,0-60.17-1.74c-18.13,1.23-36.41,4.09-53.43,10.63C25,366.18,11,373.79,3.94,386.5c-6.83,12.25-4.17,26.38,3.27,37.68,9,13.59,22.91,22.91,37.42,29.72,16.52,7.76,34.19,12.78,51.89,17.06,9,2.16,18,4.12,27,6.07,1.88.41,2.68-2.48.8-2.89-18.2-3.93-36.45-7.88-54.19-13.57-16.42-5.26-33.23-12-46.68-23.07-10.87-8.95-21.22-22-20.57-36.88s13.21-25.44,25.53-31.87c15.39-8.05,32.88-12,50-14a304.64,304.64,0,0,1,59.09-.8c39.73,3,78.57,12.07,117.52,20,37.84,7.66,76.86,14.77,115.64,12.8,15.37-.78,31.84-3,45.41-10.74,6.21-3.55,11.82-8.56,15-15.08A33.7,33.7,0,0,0,433.66,341c-2.2-14.77-11-28.46-19.72-40.23a194.39,194.39,0,0,0-33.14-34.32A261.48,261.48,0,0,0,337,237.91c-8.24-4.34-16.6-8.51-24.45-13.53C305,219.56,297.55,213.77,293,206c-4-6.77-4.7-14.49-.56-21.35s11.4-11.77,18.52-15.31c17.15-8.52,37.08-10.8,55.84-13.14A825.69,825.69,0,0,1,488.2,150.1q14.79.35,29.57,1.22c1.93.12,1.92-2.88,0-3Z"/>
      <path class="cls-5" d="M419.13,5.05l6.23-5c-4.84-.53-6.83,2.11-7.65,4.19-3.78-1.57-7.89.49-7.89.49l12.46,4.53A9.46,9.46,0,0,0,419.13,5.05Z"/>
      <path class="cls-5" d="M461.38,67.93l6.22-5c-4.83-.53-6.82,2.11-7.64,4.2-3.78-1.57-7.89.48-7.89.48l12.46,4.53A9.46,9.46,0,0,0,461.38,67.93Z"/>
      <path class="cls-5" d="M419.13,45.8l6.23-5c-4.84-.54-6.83,2.1-7.65,4.19-3.78-1.57-7.89.49-7.89.49L422.28,50A9.43,9.43,0,0,0,419.13,45.8Z"/>
      <g id="e2dfab6d-8627-4cc0-b13e-69de57259a01">
        <circle id="bedd3b2f-f695-46eb-9812-80ad4d1341b6" class="cls-6" cx="398.22" cy="81.52" r="18.77"/>
        <path id="efdddea5-7f44-48b8-bec9-83339a7f085f" class="cls-7" d="M457.07,139.36H365a1.87,1.87,0,0,1-.34,0L408.2,63.9a3.06,3.06,0,0,1,4.16-1.15,3,3,0,0,1,1.15,1.15l29.22,50.62,1.4,2.42Z"/>
        <path id="f8d22fd6-a75d-4da9-80c1-fba8d7f50740" class="cls-7" d="M508.33,139.36H428.7l15.43-22.42,1.11-1.61,20.11-29.21a4.07,4.07,0,0,1,5.72-.65,2.89,2.89,0,0,1,.32.29,2.54,2.54,0,0,1,.29.36Z"/>
      </g>
      <path class="cls-8" d="M377,312.34c8.73,4.36,14,10.13,14,16.44,0,13.62-24.63,24.65-55,24.65-13.21,0-25.33-2.09-34.81-5.56,10.07,5,24.69,8.2,41,8.2,30.39,0,55-11,55-24.64C397.18,323.73,389.3,316.86,377,312.34Z"/>
      <path class="cls-8" d="M396.39,321.69c9.84,4.92,15.84,11.43,15.84,18.56,0,15.35-27.79,27.81-62.08,27.81-14.9,0-28.58-2.36-39.28-6.28,11.37,5.68,27.87,9.26,46.23,9.26,34.29,0,62.08-12.46,62.08-27.81C419.18,334.54,410.3,326.79,396.39,321.69Z"/>
      <path class="cls-8" d="M369.55,316.46c6.14,3.07,9.89,7.13,9.89,11.58,0,9.59-17.36,17.37-38.76,17.37a72.81,72.81,0,0,1-24.53-3.92c7.1,3.55,17.4,5.78,28.87,5.78,21.41,0,38.76-7.77,38.76-17.36C383.78,324.48,378.23,319.65,369.55,316.46Z"/>
      <path class="cls-9" d="M283.15,314.7s1.36,19.75,40.09,19.75,50.29-19.75,50.29-19.75Z"/>
      <path class="cls-9" d="M338.13,262.89a27.19,27.19,0,0,0-19.59-5.36,27.28,27.28,0,0,1-3.3,53.63,27.29,27.29,0,0,0,22.89-48.27Z"/>
      <rect class="cls-5" x="322.8" y="253.96" width="2.64" height="62.86"/>
      <path class="cls-2" d="M426.5,160.15v0l0-1.54,8.28-12-8.27,10.86,0,.33-.28-12.28L433.3,133l-7.17,10.29.08-25.43v0l-.47,20-6.51-8.14,6.49,9.87-.15,11-6-10.71,6,12.33-.08,6.1-.22,16.92v1.27c.55,0,1.1,0,1.64,0l-.38-16.25Z"/>
      <path class="cls-2" d="M459.37,212.54v0l0-1.54,8.28-12-8.27,10.86,0,.33L459,197.88l7.15-12.45L459,195.72l.07-25.43v0l-.47,20-6.51-8.14,6.49,9.87-.15,11-6-10.72,6,12.34-.08,6.1-.22,16.92v1.26c.55,0,1.1,0,1.64,0l-.38-16.25Z"/>
      <path class="cls-2" d="M406.26,148.71l0,0,0-1.54,8.27-12L406.22,146l0,.33-.28-12.28,7.14-12.45-7.17,10.29.08-25.43v0l-.48,20L399,118.36l6.49,9.87-.14,11-6-10.72,6,12.33-.08,6.11L405,163.85l0,1.26c.56,0,1.1,0,1.64,0l-.37-16.25Z"/>
      <circle class="cls-7" cx="159.55" cy="487.64" r="10.56"/>
      <polygon class="cls-10" points="658.92 577.29 649.14 580.92 630.47 544.93 644.9 539.57 658.92 577.29"/>
      <path class="cls-9" d="M664.93,585.84,633.4,597.55l-.15-.39A13.11,13.11,0,0,1,641,580.32h0l19.26-7.15Z"/>
      <polygon class="cls-10" points="562.68 587.44 552.25 587.44 547.29 547.2 562.68 547.2 562.68 587.44"/>
      <path class="cls-9" d="M564.49,597.55H530.85v-.42A13.11,13.11,0,0,1,544,584h20.54Z"/>
      <path class="cls-9" d="M610.44,308.37l-3.4-6.8L578.11,316l.85,6-5.53,7.23s-9.36,5.11-7.66,22.12l1.7,16.17,2.13,20.85-14.89,51.48-7.66,68.07-5.53,54.89,26.8-1.28L593,472.17l43.4,96.16,29.78-7.66-40.85-95.3-5.1-40s3.4-21.27-12.76-35.73L610,382v-9.44l8.51-45Z"/>
      <rect class="cls-4" x="567.88" y="438.49" width="68.96" height="1" transform="translate(16.34 899.56) rotate(-74.25)"/>
      <rect class="cls-5" x="567.9" y="388.36" width="41.7" height="4.25"/>
      <ellipse class="cls-5" cx="567.9" cy="390.91" rx="1.7" ry="4.25"/>
      <circle class="cls-10" cx="586.7" cy="277.47" r="22.68"/>
      <circle class="cls-9" cx="621.41" cy="249.3" r="20.07"/>
      <path class="cls-11" d="M646.87,247.15a20.06,20.06,0,1,1-38.46,11.45,19.62,19.62,0,0,1-.68-3.22,20.07,20.07,0,0,0,39.14-8.23Z"/>
      <path class="cls-9" d="M567.6,271.17a23.73,23.73,0,1,0,14.16-19.1c-4-3.2-8.88-2.21-12.87,1.17-4.52,3.81-5.86,6.43-9.36,12.7C563,266.42,564.16,270.68,567.6,271.17Z"/>
      <path class="cls-7" d="M651,339.38c-.25,6.72-.75,19.95-.75,20.63s-10,21.48-14.37,30.42h0c-.3.63-.58,1.2-.83,1.7a4,4,0,0,1-3.7,2.28l-18.94-.34a4,4,0,0,1-4-3.93l-2.11-83.32a2,2,0,0,1,2-2.11h24.48a5.49,5.49,0,0,1,4.94,3.1l11.72,24.25a15.43,15.43,0,0,1,1.52,7.32Z"/>
      <path class="cls-7" d="M608.09,384.42a54.3,54.3,0,0,1-12.94-10.94,60,60,0,0,1-15-34.89c-1-11.07,1.24-19.3,6.53-24.46,6.73-6.56,15.9-5.6,16.28-5.56l.41.05,6.21,5.25L607.87,316l-5.56-4.7c-1.7-.09-8.64-.11-13.71,4.85-4.67,4.57-6.58,12.06-5.7,22.26a57.34,57.34,0,0,0,14.21,33.24A52.75,52.75,0,0,0,609.4,382Z"/>
      <rect class="cls-5" x="609.98" y="356.15" width="33.78" height="0.91" transform="translate(-58.93 133.41) rotate(-11.61)"/>
      <rect class="cls-5" x="621.69" y="304.69" width="0.91" height="52.69" transform="translate(-12.98 25.65) rotate(-2.34)"/>
      <path class="cls-5" d="M651,339.38c-.25,6.72-.75,19.95-.75,20.63s-10,21.48-14.37,30.42l8.08-46.9a10.36,10.36,0,0,1,6.71-8A14.53,14.53,0,0,1,651,339.38Z"/>
      <path class="cls-10" d="M601.35,437.67a8,8,0,0,0-1.41-11.2,7.75,7.75,0,0,0-1.19-.76l1.65-18.16-10.8-3.69-2,25.68a8,8,0,0,0,13.7,8.13Z"/>
      <path class="cls-2" d="M602.76,420.1l-19.12-.7.8-92.22a12.47,12.47,0,0,1,8.44-11.85,11.23,11.23,0,0,1,7.11,0,12.43,12.43,0,0,1,8.42,12.74Z"/>
      <path class="cls-2" d="M770.52,597.87h-381a1,1,0,0,1,0-2h381a1,1,0,0,1,0,2Z"/>
    </g>
  </g>
</svg>
