<svg width="753" height="371" viewBox="0 0 753 371" fill="none" xmlns="http://www.w3.org/2000/svg">
<g opacity="0.48">
<path d="M164.458 27.8023L166.68 26.0245C164.954 25.836 164.245 26.7747 163.952 27.5143C162.604 26.956 161.139 27.6885 161.139 27.6885L165.582 29.2992C165.357 28.7044 164.967 28.1854 164.458 27.8023V27.8023Z" fill="#3F3D56"/>
<path d="M189.56 223.512C189.56 223.512 185.01 212.351 198.653 203.981L189.56 223.512Z" fill="#E6E6E6"/>
<path d="M183.966 223.31C183.966 223.31 182.579 215.356 171.842 215.423L183.966 223.31Z" fill="#E6E6E6"/>
<path d="M194.307 92.1181L188.377 88.9749L188.819 88.7402L194.753 91.8834L194.307 92.1181Z" fill="#CBCBCB"/>
<path d="M163.288 75.3681L162.846 75.1334L168.776 71.9902L169.221 72.2249L163.288 75.3681Z" fill="#CBCBCB"/>
<path d="M144.972 67.7526L144.686 68.3096L146.361 69.1657L146.647 68.6087L144.972 67.7526Z" fill="#CBCBCB"/>
<path d="M179.724 86.2191L176.39 84.5124L176.675 83.9577L180.013 85.6609L179.724 86.2191ZM173.052 82.8093L169.718 81.1026L170.003 80.5479L173.341 82.251L173.052 82.8093ZM166.38 79.3994L163.046 77.6963L163.332 77.138L166.666 78.8412L166.38 79.3994ZM159.709 75.9896L156.371 74.2864L156.66 73.7282L159.994 75.4313L159.709 75.9896ZM153.037 72.5797L149.699 70.8766L149.988 70.3184L153.322 72.0251L153.037 72.5797Z" fill="#CBCBCB"/>
<path d="M183.345 87.361L183.059 87.918L184.734 88.7741L185.02 88.2171L183.345 87.361Z" fill="#CBCBCB"/>
<path d="M56.7947 109.653C56.7947 109.849 56.7947 110.041 56.7947 110.233C56.7233 111.342 56.4426 112.428 55.9675 113.433C55.9681 113.441 55.9681 113.45 55.9675 113.458C55.9461 113.504 55.9247 113.55 55.8997 113.597C55.7575 113.881 55.6004 114.157 55.429 114.425C54.6443 115.66 53.5651 116.683 52.2877 117.401C51.0104 118.12 49.5745 118.512 48.1083 118.543L48.1974 123.584L49.3456 122.98L49.5489 123.371L48.2081 124.082L48.39 133.419V133.544L47.5021 133.739V133.615L47.766 118.543C46.5924 118.526 45.4338 118.277 44.3575 117.81C43.2813 117.343 42.309 116.668 41.4972 115.822C41.4401 115.766 41.3866 115.705 41.3331 115.648C40.6563 114.916 40.1089 114.074 39.7142 113.159L39.7392 113.188C38.8471 111.107 38.7867 108.765 39.5703 106.641C40.3539 104.517 41.9222 102.772 43.954 101.764L44.0468 101.721C46.0568 100.754 48.358 100.576 50.4935 101.222C52.6291 101.868 54.443 103.291 55.5752 105.209C55.6287 105.298 55.6822 105.39 55.7321 105.486C56.4266 106.766 56.7917 108.198 56.7947 109.653V109.653Z" fill="#E5E5E5"/>
<path d="M55.5969 113.474C62.0309 113.474 67.2466 108.273 67.2466 101.857C67.2466 95.442 62.0309 90.2412 55.5969 90.2412C49.163 90.2412 43.9473 95.442 43.9473 101.857C43.9473 108.273 49.163 113.474 55.5969 113.474Z" fill="#E5E5E5"/>
<path opacity="0.2" d="M46.9958 94.0986C45.9065 96.6336 45.7572 99.4723 46.5747 102.107C47.3922 104.742 49.123 107 51.4577 108.479C53.7923 109.958 56.5784 110.56 59.3175 110.178C62.0567 109.796 64.5702 108.455 66.4084 106.394C65.7456 107.944 64.7525 109.333 63.4979 110.462C62.2433 111.592 60.7574 112.435 59.1431 112.935C57.5288 113.435 55.8248 113.578 54.1493 113.356C52.4739 113.133 50.867 112.55 49.4403 111.646C48.0135 110.742 46.8009 109.54 45.8867 108.122C44.9725 106.705 44.3785 105.106 44.146 103.436C43.9134 101.767 44.0479 100.067 44.54 98.4546C45.0321 96.8422 45.87 95.3559 46.9958 94.0986V94.0986Z" fill="black"/>
<path d="M56.2265 134.22L55.0391 133.889V133.761L55.3956 114.436L55.4135 113.473V113.444L55.4777 110.066L55.5668 105.174L55.6274 101.856H55.6631L55.7237 105.451L55.8057 110.127L55.8663 113.448V113.473V113.608L55.9804 120.079L55.9911 120.723L56.2265 134.092V134.22Z" fill="#3F3D56"/>
<path d="M57.4872 119.286L55.5625 120.297L55.8316 120.807L57.7563 119.796L57.4872 119.286Z" fill="#3F3D56"/>
<path d="M206.631 64.2559C191.923 63.39 177.17 63.617 162.496 64.935C155.425 65.5714 148.233 66.2612 141.297 67.7973C135.709 69.0382 129.219 71.1289 125.735 76.0072C125.006 76.9903 124.514 78.1283 124.299 79.3324C124.084 80.5364 124.151 81.7738 124.495 82.9478C125.325 85.7247 127.39 88.0394 129.59 89.8528C134.682 94.0093 140.947 96.452 146.56 99.7659C156.808 105.81 166.172 113.988 172.209 124.335C174.859 128.897 177.376 134.959 174.427 139.98C171.539 144.901 165.085 146.597 159.825 147.397C153.232 148.4 146.439 148.108 139.817 147.564C132.557 146.891 125.338 145.837 118.19 144.407C104.183 141.726 90.3086 138.316 76.1128 136.762C68.9929 135.929 61.8133 135.722 54.657 136.143C48.1921 136.581 41.6737 137.598 35.6046 139.923C30.9155 141.719 25.9233 144.424 23.4058 148.944C20.9703 153.299 21.9188 158.323 24.5718 162.341C27.7811 167.173 32.7412 170.487 37.9153 172.909C43.8061 175.668 50.107 177.453 56.4186 178.974C59.6278 179.742 62.8371 180.439 66.0464 181.133C66.7168 181.278 67.002 180.251 66.3317 180.105C59.8418 178.708 53.3341 177.303 47.0082 175.28C41.1531 173.41 35.1589 171.013 30.3628 167.077C26.4867 163.895 22.796 159.255 23.0278 153.964C23.2596 148.673 27.7383 144.919 32.1314 142.632C37.6193 139.77 43.856 138.366 49.9608 137.655C56.9585 136.879 64.0153 136.784 71.0315 137.37C85.1987 138.437 99.0485 141.662 112.938 144.481C126.431 147.205 140.345 149.733 154.173 149.033C159.654 148.755 165.527 147.966 170.366 145.214C172.58 143.952 174.581 142.17 175.715 139.852C176.738 137.638 177.06 135.166 176.638 132.766C175.854 127.514 172.716 122.646 169.606 118.461C166.185 113.925 162.216 109.827 157.789 106.258C152.936 102.364 147.704 98.9645 142.171 96.1107C139.232 94.5675 136.251 93.0848 133.452 91.2999C130.76 89.5861 128.103 87.5274 126.481 84.7647C125.054 82.3575 124.805 79.6126 126.281 77.1734C127.757 74.7343 130.346 72.9885 132.885 71.7298C139 68.7004 146.107 67.8897 152.797 67.0577C167.154 65.2752 181.623 64.5502 196.086 64.8888C199.602 64.9717 203.117 65.1163 206.631 65.3225C207.319 65.3652 207.315 64.2985 206.631 64.2559Z" fill="black"/>
<path d="M186.523 35.6734L188.741 33.8956C187.019 33.7071 186.309 34.6458 186.017 35.3889C184.669 34.8307 183.203 35.5596 183.203 35.5596L187.646 37.1703C187.421 36.5755 187.032 36.0565 186.523 35.6734V35.6734Z" fill="#3F3D56"/>
<path d="M171.458 27.8031L173.68 26.0253C171.954 25.8333 171.245 26.772 170.952 27.5151C169.604 26.9569 168.139 27.6894 168.139 27.6894L172.582 29.2965C172.357 28.7027 171.967 28.1849 171.458 27.8031V27.8031Z" fill="#3F3D56"/>
<path d="M164 47.1789C167.696 47.1789 170.693 44.1908 170.693 40.505C170.693 36.8191 167.696 33.8311 164 33.8311C160.303 33.8311 157.307 36.8191 157.307 40.505C157.307 44.1908 160.303 47.1789 164 47.1789Z" fill="#F49A9A"/>
<path d="M184.985 61.0711H152.154C152.114 61.0748 152.074 61.0748 152.033 61.0711L167.559 34.2404C167.702 33.9906 167.938 33.8074 168.216 33.7307C168.494 33.6541 168.791 33.6903 169.042 33.8315C169.214 33.9275 169.356 34.069 169.452 34.2404L179.872 52.2389L180.371 53.0994L184.985 61.0711Z" fill="#F45353"/>
<path d="M203.264 61.072H174.869L180.371 53.1003L180.767 52.5278L187.938 42.1418C188.057 41.9931 188.204 41.8691 188.37 41.777C188.537 41.6849 188.72 41.6264 188.91 41.605C189.099 41.5835 189.291 41.5995 189.474 41.6519C189.658 41.7044 189.829 41.7923 189.978 41.9107C190.018 41.9422 190.056 41.9767 190.092 42.0138C190.13 42.0533 190.165 42.0961 190.195 42.1418L203.264 61.072Z" fill="#F45353"/>
<path d="M156.433 122.575C159.546 124.125 161.425 126.177 161.425 128.421C161.425 133.263 152.643 137.185 141.813 137.185C137.103 137.185 132.781 136.442 129.4 135.208C132.991 136.986 138.205 138.124 144.02 138.124C154.857 138.124 163.633 134.213 163.633 129.363C163.629 126.625 160.819 124.182 156.433 122.575Z" fill="#F1F1F1"/>
<path d="M163.349 125.9C166.858 127.65 168.997 129.964 168.997 132.5C168.997 137.957 159.088 142.388 146.86 142.388C141.547 142.388 136.669 141.549 132.854 140.155C136.908 142.174 142.792 143.447 149.339 143.447C161.566 143.447 171.475 139.017 171.475 133.559C171.475 130.469 168.309 127.714 163.349 125.9Z" fill="#F1F1F1"/>
<path d="M153.776 124.041C155.966 125.133 157.303 126.576 157.303 128.158C157.303 131.568 151.112 134.335 143.481 134.335C140.507 134.373 137.548 133.902 134.734 132.941C137.266 134.203 140.939 134.996 145.029 134.996C152.664 134.996 158.85 132.233 158.85 128.823C158.85 126.893 156.871 125.175 153.776 124.041Z" fill="#F1F1F1"/>
<path d="M122.969 123.414C122.969 123.414 123.454 130.436 137.264 130.436C151.075 130.436 155.197 123.414 155.197 123.414H122.969Z" fill="#272525"/>
<path d="M142.572 104.993C140.578 103.482 138.075 102.799 135.587 103.087C137.811 103.62 139.775 104.918 141.135 106.751C142.494 108.585 143.163 110.838 143.022 113.114C142.882 115.39 141.941 117.544 140.366 119.198C138.792 120.851 136.683 121.899 134.41 122.156C136.583 122.678 138.869 122.438 140.886 121.478C142.902 120.517 144.525 118.894 145.483 116.88C146.44 114.867 146.674 112.586 146.144 110.422C145.614 108.257 144.353 106.34 142.572 104.993V104.993Z" fill="#272525"/>
<path d="M138.049 101.818H137.107V124.169H138.049V101.818Z" fill="#3F3D56"/>
<path d="M174.085 68.4625V67.9149L177.037 63.6482L174.088 67.5096V67.6269L173.988 63.2606L176.509 58.809L173.953 62.4677L173.981 53.4258L173.814 60.537L171.492 57.6427L173.806 61.1521L173.753 65.0633L171.613 61.2553L173.753 65.6393L173.724 67.8083L173.646 73.8244V74.2759C173.842 74.2759 174.038 74.2759 174.231 74.2759L174.095 68.4981L174.085 68.4625Z" fill="#CBCBCB"/>
<path d="M185.807 87.0899V86.5423L188.759 82.2756L185.81 86.137V86.2543L185.675 81.8773L188.225 77.4506L185.675 81.1093L185.7 72.0674L185.532 79.1786L183.211 76.2843L185.525 79.7938L185.472 83.7049L183.332 79.8933L185.472 84.2809L185.443 86.4499L185.365 92.466V92.914C185.561 92.914 185.757 92.914 185.95 92.914L185.814 87.1361L185.807 87.0899Z" fill="#CBCBCB"/>
<path d="M166.868 64.3946V63.847L169.817 59.5803L166.854 63.431V63.5483L166.754 59.182L169.3 54.7553L166.743 58.414L166.772 49.3721L166.601 56.4833L164.279 53.6033L166.594 57.1127L166.544 61.0238L164.404 57.2122L166.544 61.5963L166.515 63.7688L166.419 69.7778V70.2258C166.619 70.2258 166.811 70.2258 167.004 70.2258L166.872 64.4479L166.868 64.3946Z" fill="#CBCBCB"/>
<path d="M78.8964 188.66C80.9761 188.66 82.662 186.979 82.662 184.905C82.662 182.831 80.9761 181.15 78.8964 181.15C76.8168 181.15 75.1309 182.831 75.1309 184.905C75.1309 186.979 76.8168 188.66 78.8964 188.66Z" fill="#F45353"/>
</g>
<path d="M623.576 244.538H619.797L618 230H623.576V244.538Z" fill="#FFB7B7"/>
<path d="M625.757 249.068H613.568V248.917C613.567 248.293 613.69 247.675 613.929 247.098C614.168 246.522 614.519 245.998 614.962 245.558C615.405 245.117 615.931 244.768 616.509 244.53C617.087 244.292 617.707 244.171 618.333 244.173H625.775L625.757 249.068Z" fill="#272525"/>
<path d="M690.02 248.587C690.02 248.587 683.915 233.605 702.23 222.369L690.02 248.587Z" fill="#E6E6E6"/>
<path d="M682.512 248.316C682.512 248.316 680.65 237.637 666.236 237.727Z" fill="#E6E6E6"/>
<path d="M659.972 241.749L656.429 243.06L649.664 230.058L654.892 228.121L659.972 241.749Z" fill="#FFB7B7"/>
<path d="M662.15 244.837L650.726 249.068L650.671 248.927C650.235 247.749 650.285 246.446 650.812 245.305C651.339 244.164 652.298 243.279 653.479 242.843L660.458 240.26L662.15 244.837Z" fill="#272525"/>
<path d="M642.407 144.592L641.175 142.136L630.693 147.349L631.001 149.517L628.997 152.129C628.997 152.129 625.606 153.975 626.222 160.12L626.838 165.962L627.61 173.495L622.215 192.094L619.439 216.686L617.436 236.517L627.146 236.055L636.088 203.771L651.813 238.511L662.603 235.744L647.802 201.314L645.954 186.863C645.954 186.863 647.186 179.178 641.331 173.954L642.247 171.194V167.783L645.331 151.525L642.407 144.592Z" fill="#272525"/>
<path opacity="0.2" d="M642.692 179.739L635.91 203.718L636.259 203.816L643.041 179.837L642.692 179.739Z" fill="black"/>
<path d="M642.101 173.491H626.992V175.027H642.101V173.491Z" fill="#3F3D56"/>
<path d="M626.993 175.948C627.333 175.948 627.609 175.26 627.609 174.412C627.609 173.564 627.333 172.877 626.993 172.877C626.653 172.877 626.377 173.564 626.377 174.412C626.377 175.26 626.653 175.948 626.993 175.948Z" fill="#3F3D56"/>
<path d="M633.805 141.623C638.344 141.623 642.023 137.955 642.023 133.429C642.023 128.904 638.344 125.235 633.805 125.235C629.267 125.235 625.588 128.904 625.588 133.429C625.588 137.955 629.267 141.623 633.805 141.623Z" fill="#FFB7B7"/>
<path d="M646.381 130.502C650.397 130.502 653.653 127.256 653.653 123.251C653.653 119.246 650.397 116 646.381 116C642.365 116 639.109 119.246 639.109 123.251C639.109 127.256 642.365 130.502 646.381 130.502Z" fill="#272525"/>
<path d="M655.605 122.475C655.878 123.387 655.967 124.344 655.869 125.291C655.77 126.238 655.486 127.156 655.031 127.993C654.577 128.83 653.962 129.57 653.22 130.17C652.479 130.77 651.627 131.219 650.712 131.49C649.797 131.762 648.837 131.851 647.888 131.753C646.938 131.655 646.017 131.371 645.178 130.918C644.338 130.465 643.596 129.852 642.994 129.113C642.393 128.374 641.943 127.524 641.67 126.611C641.556 126.231 641.473 125.842 641.424 125.448C641.948 127.188 643.109 128.668 644.676 129.596C646.242 130.523 648.101 130.83 649.884 130.456C651.667 130.083 653.245 129.055 654.304 127.577C655.363 126.099 655.828 124.278 655.605 122.475V122.475Z" fill="#2F2E41"/>
<path d="M626.883 131.152C626.669 133.027 627.081 134.919 628.056 136.536C629.03 138.153 630.512 139.405 632.272 140.097C634.032 140.789 635.972 140.883 637.791 140.364C639.609 139.845 641.206 138.742 642.333 137.227C643.459 135.711 644.053 133.868 644.023 131.982C643.992 130.095 643.338 128.272 642.162 126.794C640.987 125.316 639.355 124.266 637.52 123.806C635.686 123.347 633.75 123.503 632.013 124.252C630.564 123.096 628.796 123.454 627.35 124.675C625.713 126.051 625.227 126.998 623.959 129.263C625.216 129.436 625.637 130.975 626.883 131.152Z" fill="#272525"/>
<path d="M657.101 155.796C657.011 158.224 656.83 163.004 656.83 163.249C656.83 163.495 653.206 171.01 651.623 174.24C651.514 174.467 651.413 174.673 651.322 174.854C651.202 175.105 651.012 175.317 650.774 175.463C650.536 175.609 650.261 175.684 649.982 175.678L643.119 175.555C642.739 175.555 642.374 175.406 642.103 175.14C641.832 174.875 641.677 174.514 641.67 174.135L640.905 144.033C640.9 143.935 640.915 143.836 640.949 143.744C640.983 143.652 641.035 143.567 641.103 143.496C641.171 143.425 641.253 143.368 641.343 143.329C641.434 143.29 641.531 143.27 641.63 143.271H650.5C650.873 143.271 651.24 143.376 651.556 143.574C651.873 143.772 652.127 144.055 652.29 144.39L656.536 153.152C656.934 153.975 657.123 154.883 657.087 155.796H657.101Z" fill="#F45353"/>
<path d="M641.555 172.068C639.794 171.003 638.212 169.669 636.867 168.115C633.734 164.611 631.827 160.188 631.432 155.51C631.069 151.511 631.881 148.537 633.798 146.673C636.236 144.303 639.559 144.65 639.696 144.664L639.845 144.682L642.095 146.579L641.475 147.349L639.461 145.651C638.845 145.618 636.33 145.611 634.493 147.403C632.801 149.054 632.109 151.76 632.428 155.445C632.801 159.897 634.607 164.109 637.577 167.454C638.861 168.92 640.363 170.181 642.03 171.193L641.555 172.068Z" fill="#F45353"/>
<path d="M654.325 160.614L642.336 163.07L642.402 163.392L654.391 160.936L654.325 160.614Z" fill="#3F3D56"/>
<path d="M646.429 143.254L646.1 143.268L646.879 162.288L647.209 162.274L646.429 143.254Z" fill="#3F3D56"/>
<path d="M657.101 155.795C657.011 158.223 656.83 163.003 656.83 163.248C656.83 163.494 653.206 171.009 651.623 174.239L654.551 157.295C654.663 156.641 654.947 156.03 655.374 155.522C655.801 155.014 656.356 154.628 656.982 154.404C657.084 154.861 657.124 155.328 657.101 155.795Z" fill="#3F3D56"/>
<path d="M639.113 191.306C639.581 190.701 639.791 189.936 639.695 189.177C639.599 188.419 639.206 187.729 638.602 187.259C638.467 187.155 638.322 187.063 638.171 186.985L638.768 180.424L634.855 179.091L634.131 188.369C633.822 189.019 633.767 189.762 633.978 190.45C634.189 191.139 634.65 191.724 635.271 192.092C635.892 192.459 636.628 192.582 637.335 192.437C638.043 192.291 638.67 191.888 639.095 191.306H639.113Z" fill="#FFB7B7"/>
<path d="M639.623 184.959L632.695 184.706L632.985 151.388C632.981 150.445 633.275 149.525 633.823 148.757C634.372 147.989 635.148 147.412 636.043 147.107C636.879 146.829 637.783 146.829 638.619 147.107C639.569 147.426 640.385 148.053 640.937 148.886C641.49 149.72 641.748 150.714 641.67 151.71L639.623 184.959Z" fill="#CBCBCB"/>
<path d="M700.408 249.184H562.362C562.266 249.184 562.174 249.145 562.106 249.078C562.038 249.01 562 248.918 562 248.822C562 248.726 562.038 248.635 562.106 248.567C562.174 248.499 562.266 248.461 562.362 248.461H700.408C700.504 248.461 700.596 248.499 700.664 248.567C700.732 248.635 700.77 248.726 700.77 248.822C700.77 248.918 700.732 249.01 700.664 249.078C700.596 249.145 700.504 249.184 700.408 249.184Z" fill="#CBCBCB"/>
</svg>
